# xmcd CD database file
#
# Track frame offsets:
#	150
#	13025
#	23949
#	39149
#	47499
#	56857
#	68900
#	80727
#	92632
#	111363
#	125471
#	138480
#	150623
#	164787
#	177132
#	190516
#	203994
#	215525
#
# Disc length: 2993 seconds
#
# Revision: 5
# Processed by: cddbd v1.5.2PL0 Copyright (c) Steve Scherf et al.
# Submitted via: CDex 1.70beta2
#
DISCID=fc0baf12
DTITLE=Johnny Cash - Life
DYEAR=2004
DGENRE=Country
TTITLE0=Suppertime ( 2004 ) - Johnny Cash
TTITLE1=Country Trash ( 2004 ) - Johnny Cash
TTITLE2=The Night Hank Williams Came To Town ( 2004 ) - Johnny Cash
TTITLE3=Time Changes Everything ( 2004 ) - Johnny Cash
TTITLE4=I Talk To Jesus Every Day ( 2004 ) - Johnny Cash
TTITLE5=You're The Nearest Thing To Heaven ( 2004 ) - Johnny Cash
TTITLE6=I'm Ragged But I'm Right ( 2004 ) - Johnny Cash
TTITLE7=These Are My People ( 2004 ) - Johnny Cash
TTITLE8=The Ballad Of Ira Hayes ( 2004 ) - Johnny Cash
TTITLE9=Oney ( 2004 ) - Johnny Cash
TTITLE10=Man In Black ( 2004 ) - Johnny Cash
TTITLE11=I'm Alright Now ( 2004 ) - Johnny Cash
TTITLE12=Ragged Old Flag ( 2004 ) - Johnny Cash
TTITLE13=I Wish I Was Crazy Again ( 2004 ) - Johnny Cash
TTITLE14=Where Did We Go Right ( With The Carter Family ) ( 2004 ) - Johnny Cash
TTITLE15=Wanted Man ( Live ) ( 2004 ) - Johnny Cash
TTITLE16=I Can't Go On That Way ( 2004 ) - Johnny Cash
TTITLE17=Lead Me Gently Home ( 2004 ) - Johnny Cash
EXTD=(c)2004 Sony Music Entertainment Inc.\nupc 5099751513629\n YEAR: 2004
EXTT0=
EXTT1=
EXTT2=
EXTT3=
EXTT4=
EXTT5=
EXTT6=
EXTT7=
EXTT8=
EXTT9=
EXTT10=
EXTT11=
EXTT12=
EXTT13=with Waylon Jennings
EXTT14=with The Carter Family
EXTT15=
EXTT16=unreleased
EXTT17=
PLAYORDER=
